<?xml version="1.0" encoding="UTF-8" standalone="no"?>
<!-- Created with Inkscape (http://www.inkscape.org/) -->

<svg
   version="1.1"
   id="svg2"
   xml:space="preserve"
   width="536.34717"
   height="286.30057"
   viewBox="0 0 536.34716 286.30056"
   sodipodi:docname="878a3d6262a962ec01affbf745dd07d3.ai"
   xmlns:inkscape="http://www.inkscape.org/namespaces/inkscape"
   xmlns:sodipodi="http://sodipodi.sourceforge.net/DTD/sodipodi-0.dtd"
   xmlns="http://www.w3.org/2000/svg"
   xmlns:svg="http://www.w3.org/2000/svg"><defs
     id="defs6"><clipPath
       clipPathUnits="userSpaceOnUse"
       id="clipPath16"><path
         d="M 0,214.727 H 402.522 V 0 H 0 Z"
         id="path14" /></clipPath><clipPath
       clipPathUnits="userSpaceOnUse"
       id="clipPath26"><path
         d="M -68.9244,68.9217 H 68.9244 V -68.9217 H -68.9244 Z"
         id="path24" /></clipPath><clipPath
       clipPathUnits="userSpaceOnUse"
       id="clipPath86"><path
         d="M 0,214.727 H 402.522 V 0 H 0 Z"
         id="path84" /></clipPath></defs><sodipodi:namedview
     id="namedview4"
     pagecolor="#ffffff"
     bordercolor="#666666"
     borderopacity="1.0"
     inkscape:pageshadow="2"
     inkscape:pageopacity="0.0"
     inkscape:pagecheckerboard="0" /><g
     id="g8"
     inkscape:groupmode="layer"
     inkscape:label="878a3d6262a962ec01affbf745dd07d3"
     transform="matrix(1.3333333,0,0,-1.3333333,-0.17466666,286.30119)"><g
       id="g10"><g
         id="g12"
         clip-path="url(#clipPath16)"><g
           id="g18"
           transform="matrix(0.5775,0,0,-0.5775,202.3208,39.8027)"><g
             id="g20"><g
               id="g22"
               clip-path="url(#clipPath26)"><g
                 id="g28"
                 transform="translate(68.9235,-14.611)"><path
                   d="M 0,0 -22.973,-8.361 -45.948,0 -68.921,-8.361 -91.895,0 -114.869,-8.361 -137.843,0 v 29.225 l 22.974,8.36 22.975,-8.36 22.973,8.36 22.973,-8.36 22.975,8.36 22.974,-8.36 z"
                   style="fill:#231f20;fill-opacity:1;fill-rule:nonzero;stroke:none"
                   id="path30" /></g><g
                 id="g32"
                 transform="translate(68.919,-60.559)"><path
                   d="m 0,0 0.005,-0.002 -22.973,-8.361 -22.973,8.361 -22.975,-8.361 -22.98,8.363 -22.968,-8.363 -22.974,8.361 h 0.001 v 29.224 l 22.973,8.362 22.974,-8.362 22.974,8.362 22.975,-8.362 22.973,8.362 22.973,-8.362 V -0.002 Z"
                   style="fill:#40b93c;fill-opacity:1;fill-rule:nonzero;stroke:none"
                   id="path34" /></g><g
                 id="g36"
                 transform="translate(-22.9767,-60.5589)"><path
                   d="M 0,0 -22.973,8.362 -45.948,0 -22.973,-8.361 Z"
                   style="fill:#231f20;fill-opacity:1;fill-rule:nonzero;stroke:none"
                   id="path38" /></g><g
                 id="g40"
                 transform="translate(22.971,-60.5589)"><path
                   d="M 0,0 -22.973,8.362 -45.948,0 -22.973,-8.361 Z"
                   style="fill:#231f20;fill-opacity:1;fill-rule:nonzero;stroke:none"
                   id="path42" /></g><g
                 id="g44"
                 transform="translate(68.9187,-60.5589)"><path
                   d="M 0,0 -22.973,8.362 -45.948,0 -22.973,-8.361 Z"
                   style="fill:#231f20;fill-opacity:1;fill-rule:nonzero;stroke:none"
                   id="path46" /></g><g
                 id="g48"
                 transform="translate(-68.9242,14.6138)"><path
                   d="M 0,0 22.973,-8.362 45.948,0 22.973,8.361 Z"
                   style="fill:#40b93c;fill-opacity:1;fill-rule:nonzero;stroke:none"
                   id="path50" /></g><g
                 id="g52"
                 transform="translate(22.9766,14.6138)"><path
                   d="M 0,0 22.973,-8.362 45.948,0 22.973,8.361 Z"
                   style="fill:#40b93c;fill-opacity:1;fill-rule:nonzero;stroke:none"
                   id="path54" /></g><g
                 id="g56"
                 transform="translate(22.9657,-14.6092)"><path
                   d="m 0,0 -22.969,8.359 -22.972,-8.361 v 29.224 l 22.973,8.362 22.973,-8.362 z"
                   style="fill:#40b93c;fill-opacity:1;fill-rule:nonzero;stroke:none"
                   id="path58" /></g><g
                 id="g60"
                 transform="translate(68.9235,31.3359)"><path
                   d="M 0,0 -22.973,-8.361 -45.948,0 -68.921,-8.361 -91.895,0 -114.869,-8.361 -137.843,0 v 29.225 l 22.974,8.36 22.975,-8.36 22.973,8.36 22.973,-8.36 22.975,8.36 22.974,-8.36 z"
                   style="fill:#231f20;fill-opacity:1;fill-rule:nonzero;stroke:none"
                   id="path62" /></g><g
                 id="g64"
                 transform="translate(-68.9242,60.5606)"><path
                   d="M 0,0 22.973,-8.362 45.948,0 22.973,8.361 Z"
                   style="fill:#40b93c;fill-opacity:1;fill-rule:nonzero;stroke:none"
                   id="path66" /></g><g
                 id="g68"
                 transform="translate(22.9766,60.5606)"><path
                   d="M 0,0 22.973,-8.362 45.948,0 22.973,8.361 Z"
                   style="fill:#40b93c;fill-opacity:1;fill-rule:nonzero;stroke:none"
                   id="path70" /></g><g
                 id="g72"
                 transform="translate(22.9657,31.3375)"><path
                   d="m 0,0 -22.969,8.36 -22.972,-8.362 v 29.224 l 22.973,8.362 22.973,-8.362 z"
                   style="fill:#40b93c;fill-opacity:1;fill-rule:nonzero;stroke:none"
                   id="path74" /></g></g></g></g></g></g><g
       id="g76"
       transform="translate(104.8057,207.4427)"><path
         d="M 0,0 H 20.11 V -4.626 H 12.532 V -22.768 H 7.545 V -4.626 H 0 Z"
         style="fill:#231f20;fill-opacity:1;fill-rule:nonzero;stroke:none"
         id="path78" /></g><g
       id="g80"><g
         id="g82"
         clip-path="url(#clipPath86)"><g
           id="g88"
           transform="translate(147.4224,196.0589)"><path
             d="m 0,0 c 0,3.937 -2.985,6.955 -6.856,6.955 -3.904,0 -6.89,-2.985 -6.89,-6.955 0,-3.969 2.986,-6.955 6.89,-6.955 C -2.985,-6.955 0,-3.937 0,0 M -6.856,11.712 C 0.033,11.712 5.151,6.725 5.151,0 c 0,-6.725 -5.118,-11.712 -12.007,-11.712 -6.923,0 -12.04,4.987 -12.04,11.712 0,6.725 5.117,11.712 12.04,11.712"
             style="fill:#231f20;fill-opacity:1;fill-rule:nonzero;stroke:none"
             id="path90" /></g><g
           id="g92"
           transform="translate(159.6279,207.4427)"><path
             d="M 0,0 H 5.282 L 12.007,-7.972 18.732,0 h 5.217 v -22.768 h -4.856 v 16.502 l -7.086,-8.628 -7.119,8.563 V -22.768 H 0 Z"
             style="fill:#231f20;fill-opacity:1;fill-rule:nonzero;stroke:none"
             id="path94" /></g><g
           id="g96"
           transform="translate(202.4092,203.014)"><path
             d="m 0,0 c -3.904,0 -6.955,-2.854 -6.955,-6.955 0,-4.101 3.051,-6.955 6.955,-6.955 3.051,0 4.855,1.64 6.036,3.248 l 3.576,-3.084 c -1.247,-2.067 -4.494,-4.921 -9.645,-4.921 -6.791,0 -12.073,4.691 -12.073,11.712 0,7.02 5.709,11.712 12.04,11.712 5.38,0 8.431,-2.854 9.678,-4.921 L 6.036,-3.248 C 4.855,-1.64 3.051,0 0,0"
             style="fill:#231f20;fill-opacity:1;fill-rule:nonzero;stroke:none"
             id="path98" /></g><g
           id="g100"
           transform="translate(231.7065,207.4427)"><path
             d="m 0,0 h 5.544 l -7.972,-9.908 9.416,-12.86 H 1.083 l -9.317,12.664 z m -13.254,0 h 5.02 v -22.768 h -5.02 z"
             style="fill:#231f20;fill-opacity:1;fill-rule:nonzero;stroke:none"
             id="path102" /></g><g
           id="g104"
           transform="translate(249.3904,192.2535)"><path
             d="m 0,0 10.629,15.189 h 5.02 V -7.578 H 10.695 V 7.71 L 0.033,-7.578 H -4.954 V 15.189 H 0 Z"
             style="fill:#231f20;fill-opacity:1;fill-rule:nonzero;stroke:none"
             id="path106" /></g><g
           id="g108"
           transform="translate(281.9033,214.7259)"><path
             d="m 0,0 c 0,-1.247 0.754,-2.329 2.001,-2.329 1.214,0 2.034,1.082 2.034,2.329 h 3.642 c 0,-3.445 -2.461,-5.544 -5.676,-5.544 -3.215,0 -5.708,2.099 -5.708,5.544 z m -3.281,-22.472 10.63,15.189 h 5.019 V -30.051 H 7.414 v 15.288 L -3.248,-30.051 h -4.986 v 22.768 h 4.953 z"
             style="fill:#231f20;fill-opacity:1;fill-rule:nonzero;stroke:none"
             id="path110" /></g><g
           id="g112"
           transform="translate(20.602,143.308)"><path
             d="M 0,0 H -4.986 V 18.142 H -15.452 V 0 h -5.019 V 22.768 H 0 Z"
             style="fill:#231f20;fill-opacity:1;fill-rule:nonzero;stroke:none"
             id="path114" /></g><g
           id="g116"
           transform="translate(46.0618,154.6917)"><path
             d="m 0,0 c 0,3.937 -2.985,6.955 -6.856,6.955 -3.904,0 -6.89,-2.985 -6.89,-6.955 0,-3.969 2.986,-6.955 6.89,-6.955 C -2.985,-6.955 0,-3.937 0,0 M -6.856,11.712 C 0.033,11.712 5.151,6.725 5.151,0 c 0,-6.725 -5.118,-11.712 -12.007,-11.712 -6.923,0 -12.04,4.987 -12.04,11.712 0,6.725 5.117,11.712 12.04,11.712"
             style="fill:#231f20;fill-opacity:1;fill-rule:nonzero;stroke:none"
             id="path118" /></g><g
           id="g120"
           transform="translate(54.8882,143.1439)"><path
             d="m 0,0 v 4.593 h 1.279 c 2.002,0 3.019,0.951 3.019,3.609 v 14.73 H 22.013 V 0.164 H 17.026 V 18.339 H 9.087 V 7.873 C 9.087,3.149 7.021,0 1.837,0 Z"
             style="fill:#231f20;fill-opacity:1;fill-rule:nonzero;stroke:none"
             id="path122" /></g><g
           id="g124"
           transform="translate(90.5173,150.8863)"><path
             d="m 0,0 10.629,15.189 h 5.02 V -7.578 H 10.695 V 7.709 L 0.033,-7.578 H -4.954 V 15.189 H 0 Z"
             style="fill:#231f20;fill-opacity:1;fill-rule:nonzero;stroke:none"
             id="path126" /></g><g
           id="g128"
           transform="translate(112.6633,166.0755)"><path
             d="M 0,0 H 20.11 V -4.626 H 12.532 V -22.768 H 7.545 V -4.626 H 0 Z"
             style="fill:#231f20;fill-opacity:1;fill-rule:nonzero;stroke:none"
             id="path130" /></g><g
           id="g132"
           transform="translate(139.3037,166.0755)"><path
             d="M 0,0 H 17.256 V -4.593 H 5.019 v -4.429 h 8.629 v -4.429 H 5.019 v -4.724 h 12.368 v -4.593 H 0 Z"
             style="fill:#231f20;fill-opacity:1;fill-rule:nonzero;stroke:none"
             id="path134" /></g><g
           id="g136"
           transform="translate(173.6531,158.3333)"><path
             d="m 0,0 5.774,7.742 h 5.708 L 3.084,-3.477 11.843,-15.025 H 5.708 l -6.135,7.939 -6.102,-7.939 h -5.741 l 8.76,11.548 -8.432,11.219 h 6.07 z"
             style="fill:#231f20;fill-opacity:1;fill-rule:nonzero;stroke:none"
             id="path138" /></g><g
           id="g140"
           transform="translate(212.0054,166.0755)"><path
             d="m 0,0 v -22.768 h -4.987 v 9.252 h -10.465 v -9.252 h -5.019 V 0 h 5.019 V -8.923 H -4.987 V 0 Z"
             style="fill:#231f20;fill-opacity:1;fill-rule:nonzero;stroke:none"
             id="path142" /></g><g
           id="g144"
           transform="translate(225.6218,150.8863)"><path
             d="m 0,0 10.629,15.189 h 5.02 V -7.578 H 10.695 V 7.709 L 0.033,-7.578 H -4.954 V 15.189 H 0 Z"
             style="fill:#231f20;fill-opacity:1;fill-rule:nonzero;stroke:none"
             id="path146" /></g><g
           id="g148"
           transform="translate(267.6482,166.0755)"><path
             d="m 0,0 v -22.768 h -4.987 v 8.694 h -6.331 c -4.068,0 -7.447,1.804 -7.447,6.627 V 0 h 4.986 v -6.824 c 0,-2.001 1.28,-2.657 3.215,-2.657 h 5.577 V 0 Z"
             style="fill:#231f20;fill-opacity:1;fill-rule:nonzero;stroke:none"
             id="path150" /></g><g
           id="g152"
           transform="translate(276.3105,166.0755)"><path
             d="M 0,0 H 17.256 V -4.593 H 5.02 v -4.429 h 8.628 v -4.429 H 5.02 v -4.724 h 12.368 v -4.593 H 0 Z"
             style="fill:#231f20;fill-opacity:1;fill-rule:nonzero;stroke:none"
             id="path154" /></g><g
           id="g156"
           transform="translate(310.5293,161.6468)"><path
             d="m 0,0 c -3.904,0 -6.955,-2.854 -6.955,-6.955 0,-4.101 3.051,-6.955 6.955,-6.955 3.051,0 4.855,1.64 6.036,3.248 l 3.576,-3.084 c -1.246,-2.067 -4.494,-4.921 -9.645,-4.921 -6.791,0 -12.073,4.691 -12.073,11.712 0,7.02 5.709,11.712 12.04,11.712 5.38,0 8.432,-2.854 9.678,-4.921 L 6.036,-3.248 C 4.855,-1.64 3.051,0 0,0"
             style="fill:#231f20;fill-opacity:1;fill-rule:nonzero;stroke:none"
             id="path158" /></g><g
           id="g160"
           transform="translate(339.8264,166.0755)"><path
             d="M 0,0 H 5.544 L -2.428,-9.907 6.988,-22.768 H 1.083 l -9.317,12.664 z m -13.254,0 h 5.019 v -22.768 h -5.019 z"
             style="fill:#231f20;fill-opacity:1;fill-rule:nonzero;stroke:none"
             id="path162" /></g><g
           id="g164"
           transform="translate(357.5105,150.8863)"><path
             d="m 0,0 10.629,15.189 h 5.02 V -7.578 H 10.695 V 7.709 L 0.033,-7.578 H -4.954 V 15.189 H 0 Z"
             style="fill:#231f20;fill-opacity:1;fill-rule:nonzero;stroke:none"
             id="path166" /></g><g
           id="g168"
           transform="translate(390.0234,173.3587)"><path
             d="m 0,0 c 0,-1.247 0.754,-2.329 2.001,-2.329 1.214,0 2.034,1.082 2.034,2.329 h 3.641 c 0,-3.445 -2.46,-5.544 -5.675,-5.544 -3.215,0 -5.708,2.099 -5.708,5.544 z m -3.281,-22.472 10.63,15.189 h 5.019 V -30.051 H 7.414 v 15.288 L -3.248,-30.051 h -4.986 v 22.768 h 4.953 z"
             style="fill:#231f20;fill-opacity:1;fill-rule:nonzero;stroke:none"
             id="path170" /></g><g
           id="g172"
           transform="translate(62.3679,106.5335)"><path
             d="M 0,0 H 2.329 C 3.641,0 5.085,0.131 5.905,1.247 L -3.379,18.175 H 2.132 L 8.464,6.463 13.516,18.175 h 5.249 L 10.957,0.426 C 9.415,-3.084 6.922,-4.593 3.674,-4.593 H 0 Z"
             style="fill:#231f20;fill-opacity:1;fill-rule:nonzero;stroke:none"
             id="path174" /></g><g
           id="g176"
           transform="translate(107.6094,124.7081)"><path
             d="m 0,0 v -22.768 h -4.987 v 9.252 h -10.465 v -9.252 h -5.019 V 0 h 5.019 V -8.923 H -4.987 V 0 Z"
             style="fill:#231f20;fill-opacity:1;fill-rule:nonzero;stroke:none"
             id="path178" /></g><g
           id="g180"
           transform="translate(121.2256,109.5189)"><path
             d="m 0,0 10.629,15.189 h 5.02 V -7.578 H 10.695 V 7.71 L 0.033,-7.578 H -4.954 V 15.189 H 0 Z"
             style="fill:#231f20;fill-opacity:1;fill-rule:nonzero;stroke:none"
             id="path182" /></g><g
           id="g184"
           transform="translate(155.0178,106.107)"><path
             d="M 0,0 C 1.87,0 3.478,0.853 3.478,2.788 3.478,4.724 1.87,5.544 0,5.544 H -4.494 V 0 Z M -0.689,14.468 H -4.494 V 9.317 h 3.805 c 1.804,0 3.018,0.984 3.018,2.624 0,1.608 -1.214,2.527 -3.018,2.527 m -8.825,4.133 h 9.58 c 4.625,0 7.414,-2.46 7.414,-6.003 0,-2.756 -1.772,-4.233 -3.478,-4.79 2.297,-0.459 4.593,-2.1 4.593,-5.348 0,-4.166 -3.346,-6.627 -8.136,-6.627 h -9.973 z"
             style="fill:#231f20;fill-opacity:1;fill-rule:nonzero;stroke:none"
             id="path186" /></g><g
           id="g188"
           transform="translate(170.668,124.7081)"><path
             d="M 0,0 H 17.256 V -4.593 H 5.02 v -4.429 h 8.627 V -13.45 H 5.02 v -4.725 h 12.367 v -4.593 H 0 Z"
             style="fill:#231f20;fill-opacity:1;fill-rule:nonzero;stroke:none"
             id="path190" /></g><g
           id="g192"
           transform="translate(207.478,117.2284)"><path
             d="m 0,0 c 0,1.739 -1.312,2.953 -3.346,2.953 h -3.74 v -6.004 h 3.74 C -1.312,-3.051 0,-1.771 0,0 m -12.105,7.48 h 8.956 c 4.724,0 8.3,-2.658 8.3,-7.48 0,-4.79 -3.642,-7.414 -8.3,-7.414 h -3.937 v -7.874 h -5.019 z"
             style="fill:#231f20;fill-opacity:1;fill-rule:nonzero;stroke:none"
             id="path194" /></g><g
           id="g196"
           transform="translate(229.5254,120.2794)"><path
             d="m 0,0 c -3.904,0 -6.955,-2.854 -6.955,-6.955 0,-4.101 3.051,-6.955 6.955,-6.955 3.051,0 4.855,1.64 6.036,3.248 l 3.576,-3.084 c -1.247,-2.067 -4.494,-4.921 -9.645,-4.921 -6.791,0 -12.073,4.691 -12.073,11.712 0,7.02 5.708,11.712 12.04,11.712 5.38,0 8.431,-2.854 9.678,-4.921 L 6.036,-3.248 C 4.855,-1.64 3.051,0 0,0"
             style="fill:#231f20;fill-opacity:1;fill-rule:nonzero;stroke:none"
             id="path198" /></g><g
           id="g200"
           transform="translate(250.5227,109.5189)"><path
             d="m 0,0 10.629,15.189 h 5.02 V -7.578 H 10.695 V 7.71 L 0.033,-7.578 H -4.954 V 15.189 H 0 Z"
             style="fill:#231f20;fill-opacity:1;fill-rule:nonzero;stroke:none"
             id="path202" /></g><g
           id="g204"
           transform="translate(272.6684,124.7081)"><path
             d="M 0,0 H 20.11 V -4.626 H 12.532 V -22.768 H 7.546 V -4.626 H 0 Z"
             style="fill:#231f20;fill-opacity:1;fill-rule:nonzero;stroke:none"
             id="path206" /></g><g
           id="g208"
           transform="translate(299.3086,124.7081)"><path
             d="M 0,0 H 17.256 V -4.593 H 5.02 v -4.429 h 8.627 V -13.45 H 5.02 v -4.725 h 12.367 v -4.593 H 0 Z"
             style="fill:#231f20;fill-opacity:1;fill-rule:nonzero;stroke:none"
             id="path210" /></g><g
           id="g212"
           transform="translate(321.553,124.7081)"><path
             d="M 0,0 H 20.11 V -4.626 H 12.532 V -22.768 H 7.545 V -4.626 H 0 Z"
             style="fill:#231f20;fill-opacity:1;fill-rule:nonzero;stroke:none"
             id="path214" /></g></g></g></g></svg>
